<?xml version="1.0" encoding="UTF-8" standalone="no"?>
<!DOCTYPE svg PUBLIC "-//W3C//DTD SVG 1.1//EN" "http://www.w3.org/Graphics/SVG/1.1/DTD/svg11.dtd">
<svg width="100%" height="100%" viewBox="0 0 3019 2354" version="1.1" xmlns="http://www.w3.org/2000/svg" xmlns:xlink="http://www.w3.org/1999/xlink" xml:space="preserve" xmlns:serif="http://www.serif.com/" style="fill-rule:evenodd;clip-rule:evenodd;stroke-linejoin:round;stroke-miterlimit:2;">
    <g transform="matrix(1,0,0,1,-128.124,-453.86)">
        <g>
            <g>
                <path d="M807.497,2659.39C807.327,2651.58 807.241,2643.69 807.241,2635.78C807.241,2101.28 1199.71,1667.33 1683.13,1667.33C2166.55,1667.33 2559.02,2101.28 2559.02,2635.78C2559.02,2643.69 2558.93,2651.58 2558.76,2659.39L807.497,2659.39Z" style="fill:rgb(243,139,0);"/>
                <g transform="matrix(1,0,0,1.11533,-120.986,-259.198)">
                    <circle cx="1796.37" cy="1230.5" r="505.74" style="fill:rgb(243,139,0);"/>
                </g>
            </g>
            <g>
                <path d="M2598.21,2542.77C2569.58,2194.48 2381.64,1896.69 2115.68,1739.33C2167.79,1725.68 2222.09,1718.47 2277.87,1718.47C2676.24,1718.47 2999.67,2086.71 2999.67,2540.28C2999.67,2541.1 2999.66,2541.93 2999.66,2542.77L2598.21,2542.77Z" style="fill:rgb(243,139,0);"/>
                <path d="M315.384,2542.77C315.382,2541.91 315.381,2541.09 315.381,2540.28C315.381,2086.71 638.809,1718.47 1037.18,1718.47C1105.38,1718.47 1171.39,1729.26 1233.94,1749.42C976.826,1909.17 796.089,2201.75 768.052,2542.77L315.384,2542.77Z" style="fill:rgb(243,139,0);"/>
                <path d="M1320.24,1579.62C1245.43,1665.7 1140.45,1719.27 1024.27,1719.27C797.44,1719.27 613.284,1515.08 613.284,1263.59C613.284,1012.09 797.44,807.908 1024.27,807.908C1079.68,807.908 1132.55,820.094 1180.82,842.187C1143.98,923.811 1123.25,1015.86 1123.25,1113.22C1123.25,1300.3 1199.81,1467.79 1320.24,1579.62Z" style="fill:rgb(243,139,0);"/>
                <path d="M2162.05,825.373C2197.96,813.998 2235.86,807.908 2275.04,807.908C2501.87,807.908 2686.02,1012.09 2686.02,1263.59C2686.02,1515.08 2501.87,1719.27 2275.04,1719.27C2170.36,1719.27 2074.76,1675.78 2002.19,1604.25C2138.81,1493.27 2227.52,1314.59 2227.52,1113.22C2227.52,1009.14 2203.82,911.117 2162.05,825.373Z" style="fill:rgb(243,139,0);"/>
            </g>
            <g>
                <path d="M171.467,863.698C183.168,864.522 566.25,864.749 1052.02,864.573C1913.76,864.259 3099.75,862.991 3099.75,862.991C3122.88,862.966 3141.65,844.162 3141.62,821.025C3141.6,797.889 3122.8,779.125 3099.66,779.149L177.357,780.064C154.278,778.438 134.221,795.856 132.595,818.936C130.97,842.015 148.388,862.073 171.467,863.698Z" style="fill:rgb(243,139,0);"/>
                <g transform="matrix(1.00464,0,0,1.00387,-4.29275,-11.2371)">
                    <path d="M3136.2,645.775C3136.2,595.42 3115.78,549.799 3082.77,516.769C3049.77,483.74 3004.18,463.305 2953.87,463.305C2953.87,463.305 314.133,463.305 314.133,463.305C263.817,463.305 218.231,483.74 185.227,516.769C152.223,549.799 131.805,595.42 131.805,645.775L131.805,2624.95C131.805,2675.31 152.223,2720.93 185.227,2753.96C218.231,2786.99 263.817,2807.42 314.133,2807.42L2953.87,2807.42C3004.18,2807.42 3049.77,2786.99 3082.77,2753.96C3115.78,2720.93 3136.2,2675.31 3136.2,2624.95C3136.2,2624.95 3136.2,645.775 3136.2,645.775ZM3059.49,645.775L3059.49,2624.95C3059.49,2654.12 3047.65,2680.54 3028.53,2699.67C3009.41,2718.81 2983.01,2730.65 2953.87,2730.65C2953.87,2730.65 314.133,2730.65 314.133,2730.65C284.988,2730.65 258.587,2718.81 239.47,2699.67C220.352,2680.54 208.515,2654.12 208.515,2624.95C208.515,2624.95 208.515,645.775 208.515,645.775C208.515,616.607 220.352,590.186 239.47,571.054C258.587,551.922 284.988,540.075 314.133,540.075L2953.87,540.075C2983.01,540.075 3009.41,551.922 3028.53,571.054C3047.65,590.186 3059.49,616.607 3059.49,645.775Z" style="fill:rgb(243,139,0);"/>
                </g>
                <g transform="matrix(0.958613,0,0,1.07743,117.224,-57.8938)">
                    <path d="M2875.2,593.642C2875.2,588.324 2870.35,584.013 2864.37,584.013L2659.55,584.013C2653.57,584.013 2648.72,588.324 2648.72,593.642L2648.72,742.596C2648.72,747.914 2653.57,752.225 2659.55,752.225L2864.37,752.225C2870.35,752.225 2875.2,747.914 2875.2,742.596L2875.2,593.642ZM2853.55,603.27L2853.55,732.967C2853.55,732.967 2670.37,732.967 2670.37,732.967C2670.37,732.967 2670.37,603.27 2670.37,603.27C2711.19,603.27 2853.55,603.27 2853.55,603.27L2853.55,603.27Z" style="fill:rgb(243,139,0);"/>
                </g>
                <g>
                    <g transform="matrix(1,0,0,1,22.719,18.3735)">
                        <path d="M319.797,570.105C303.917,570.105 289.528,576.544 279.113,586.96C268.697,597.376 262.257,611.764 262.257,627.644C262.257,643.523 268.697,657.912 279.113,668.328C289.528,678.744 303.917,685.183 319.797,685.183C335.676,685.183 350.065,678.744 360.481,668.328C370.897,657.912 377.336,643.523 377.336,627.644C377.336,611.764 370.897,597.376 360.481,586.96C350.065,576.544 335.676,570.105 319.797,570.105ZM319.797,653.946C312.537,653.946 305.958,651.006 301.196,646.245C296.434,641.483 293.495,634.903 293.495,627.644C293.495,620.385 296.434,613.805 301.196,609.043C305.958,604.282 312.537,601.342 319.797,601.342C327.056,601.342 333.636,604.282 338.397,609.043C343.159,613.805 346.099,620.385 346.099,627.644C346.099,634.903 343.159,641.483 338.397,646.245C333.636,651.006 327.056,653.946 319.797,653.946Z" style="fill:rgb(243,139,0);"/>
                    </g>
                    <g transform="matrix(1,0,0,1,210.787,18.3735)">
                        <path d="M319.797,570.105C303.917,570.105 289.528,576.544 279.113,586.96C268.697,597.376 262.257,611.764 262.257,627.644C262.257,643.523 268.697,657.912 279.113,668.328C289.528,678.744 303.917,685.183 319.797,685.183C335.676,685.183 350.065,678.744 360.481,668.328C370.897,657.912 377.336,643.523 377.336,627.644C377.336,611.764 370.897,597.376 360.481,586.96C350.065,576.544 335.676,570.105 319.797,570.105ZM319.797,653.946C312.537,653.946 305.958,651.006 301.196,646.245C296.434,641.483 293.495,634.903 293.495,627.644C293.495,620.385 296.434,613.805 301.196,609.043C305.958,604.282 312.537,601.342 319.797,601.342C327.056,601.342 333.636,604.282 338.397,609.043C343.159,613.805 346.099,620.385 346.099,627.644C346.099,634.903 343.159,641.483 338.397,646.245C333.636,651.006 327.056,653.946 319.797,653.946Z" style="fill:rgb(243,139,0);"/>
                    </g>
                    <g transform="matrix(1,0,0,1,397.906,18.3735)">
                        <path d="M319.797,570.105C303.917,570.105 289.528,576.544 279.113,586.96C268.697,597.376 262.257,611.764 262.257,627.644C262.257,643.523 268.697,657.912 279.113,668.328C289.528,678.744 303.917,685.183 319.797,685.183C335.676,685.183 350.065,678.744 360.481,668.328C370.897,657.912 377.336,643.523 377.336,627.644C377.336,611.764 370.897,597.376 360.481,586.96C350.065,576.544 335.676,570.105 319.797,570.105ZM319.797,653.946C312.537,653.946 305.958,651.006 301.196,646.245C296.434,641.483 293.495,634.903 293.495,627.644C293.495,620.385 296.434,613.805 301.196,609.043C305.958,604.282 312.537,601.342 319.797,601.342C327.056,601.342 333.636,604.282 338.397,609.043C343.159,613.805 346.099,620.385 346.099,627.644C346.099,634.903 343.159,641.483 338.397,646.245C333.636,651.006 327.056,653.946 319.797,653.946Z" style="fill:rgb(243,139,0);"/>
                    </g>
                </g>
            </g>
        </g>
    </g>
</svg>
